<svg
  xmlns="http://www.w3.org/2000/svg"
  viewBox="0 0 24 24"
  width="24"
  height="24"
  fill="#FFFFFF">
  <path d="M12 2.2c3.2 0 3.6 0 4.9.1 1.2.1 2.1.2 2.6.5.6.2 1.1.5 1.6 1 .4.4.8.9 1 1.6.3.5.4 1.4.5 2.6.1 1.3.1 1.7.1 4.9s0 3.6-.1 4.9c-.1 1.2-.2 2.1-.5 2.6-.2.6-.5 1.1-1 1.6-.4.4-.9.8-1.6 1-.5.3-1.4.4-2.6.5-1.3.1-1.7.1-4.9.1s-3.6 0-4.9-.1c-1.2-.1-2.1-.2-2.6-.5-.6-.2-1.1-.5-1.6-1-.4-.4-.8-.9-1-1.6-.3-.5-.4-1.4-.5-2.6-.1-1.3-.1-1.7-.1-4.9s0-3.6.1-4.9c.1-1.2.2-2.1.5-2.6.2-.6.5-1.1 1-1.6.4-.4.9-.8 1.6-1 .5-.3 1.4-.4 2.6-.5 1.3-.1 1.7-.1 4.9-.1M12 0C8.7 0 8.3 0 7 0c-1.4 0-2.5.1-3.4.3-.9.2-1.7.5-2.4 1.1-.7.6-1.3 1.4-1.8 2.4-.5 1-.8 2.2-1 3.4C.1 8.3 0 8.7 0 12s0 3.7.3 4.9c.2 1.2.5 2.4 1 3.4.5 1 .9 1.8 1.8 2.4.6.6 1.4 1 2.4 1.3.9.2 2.2.3 3.4.3s3.7 0 4.9-.3c1.2-.2 2.4-.5 3.4-1 1-.5 1.8-.9 2.4-1.8.6-.6 1-1.4 1.3-2.4.2-.9.3-2.2.3-3.4s0-3.7-.3-4.9c-.2-1.2-.5-2.4-1-3.4-.5-1-.9-1.8-1.8-2.4-.6-.6-1.4-1-2.4-1.3C17.5.1 16.2 0 14.9 0c-1.2 0-1.6 0-4.9 0z"/>
  <path d="M12 5.8c-3.4 0-6.2 2.8-6.2 6.2s2.8 6.2 6.2 6.2 6.2-2.8 6.2-6.2S15.4 5.8 12 5.8zm0 10.3c-2.3 0-4.2-1.9-4.2-4.2s1.9-4.2 4.2-4.2 4.2 1.9 4.2 4.2-1.9 4.2-4.2 4.2z"/>
  <circle cx="18.4" cy="5.6" r="1.4"/>
</svg>