<svg
  xmlns="http://www.w3.org/2000/svg"
  viewBox="0 0 24 24"
  width="24"
  height="24"
  fill="#FFFFFF">
  <path d="M22.46 6c-.77.35-1.61.58-2.48.69a4.3 4.3 0 0 0 1.89-2.38 8.57 8.57 0 0 1-2.72 1.04 4.28 4.28 0 0 0-7.29 3.9A12.15 12.15 0 0 1 1.64 4.15a4.28 4.28 0 0 0 1.33 5.7A4.22 4.22 0 0 1 .8 9.12v.05a4.28 4.28 0 0 0 3.42 4.19 4.29 4.29 0 0 1-1.93.07 4.28 4.28 0 0 0 4 2.96A8.6 8.6 0 0 1 1 19.58a12.1 12.1 0 0 0 6.56 1.92c7.88 0 12.2-6.53 12.2-12.2v-.56a8.68 8.68 0 0 0 2.13-2.23 8.57 8.57 0 0 1-2.43.67 4.29 4.29 0 0 0 1.88-2.38 8.61 8.61 0 0 1-2.72 1.04z"/>
</svg>